<?xml version="1.0" encoding="UTF-8"?>
<svg version="1.1" xmlns="http://www.w3.org/2000/svg" width="1920" height="1920">
<path d="M0 0 C633.6 0 1267.2 0 1920 0 C1920 633.6 1920 1267.2 1920 1920 C1286.4 1920 652.8 1920 0 1920 C0 1286.4 0 652.8 0 0 Z " fill="#FEFEFE" transform="translate(0,0)"/>
<path d="M0 0 C4.47052193 0.01136763 8.94080507 0.00462958 13.41131878 -0.00687218 C33.38731039 -0.05059907 53.16964326 0.2728491 73.06567383 2.26074219 C73.93473358 2.34517578 74.80379333 2.42960937 75.69918823 2.51660156 C81.18630203 3.05911225 86.65811263 3.69320522 92.12817383 4.38574219 C93.35955582 4.539478 93.35955582 4.539478 94.61581421 4.69631958 C114.94252225 7.26454712 135.00789276 11.12231204 155.06567383 15.26074219 C155.7668634 15.40445251 156.46805298 15.54816284 157.19049072 15.69622803 C171.56102804 18.6442871 185.61717078 22.10608978 199.60913086 26.50634766 C204.00946189 27.85767174 208.4463572 29.08002093 212.87817383 30.32324219 C223.87198147 33.43608652 234.72180017 36.79308488 245.28833008 41.17089844 C247.51510073 42.04469451 249.73855464 42.8536978 251.99926758 43.63183594 C253.07942139 44.00417358 253.07942139 44.00417358 254.18139648 44.3840332 C255.58140302 44.86309745 256.98325572 45.33682347 258.38745117 45.8034668 C263.97952862 47.7194321 269.26537784 50.16063785 274.61474609 52.66845703 C280.31001991 55.29630109 286.09962678 57.69812384 291.87817383 60.13574219 C301.39997402 64.1823076 310.80141576 68.34830331 319.96264648 73.16210938 C322.39812106 74.43441441 324.84685044 75.67931264 327.29614258 76.92480469 C349.28572474 88.16904789 370.38139164 100.77820767 391.06567383 114.26074219 C391.80205078 114.7405957 392.53842773 115.22044922 393.29711914 115.71484375 C401.38797857 121.00662138 409.29136617 126.5122091 417.06567383 132.26074219 C418.23815041 133.11326892 419.41137223 133.96477134 420.58520508 134.81542969 C442.10892075 150.44281253 462.70435288 167.29723076 482.13037109 185.46899414 C483.64608881 186.87228067 485.1721747 188.26436994 486.70214844 189.65209961 C493.59060852 195.90065595 500.27778115 202.31526094 506.84033203 208.9050293 C508.3915211 210.46163608 509.94806775 212.0127439 511.50512695 213.56347656 C516.35109384 218.40622344 521.09591033 223.29238285 525.55175781 228.50170898 C527.93303287 231.26853478 530.44392956 233.91105607 532.94067383 236.57324219 C537.34023642 241.30745018 541.54116194 246.14498647 545.58911133 251.18652344 C547.51383267 253.57572801 549.45614407 255.94459688 551.41723633 258.30371094 C558.19821429 266.46380869 564.81671365 274.68166127 571.06567383 283.26074219 C572.0003752 284.52390694 572.93528482 285.78691761 573.87036133 287.04980469 C611.04990205 337.58343614 643.0491302 393.61913126 664.71020508 452.59277344 C665.91509863 455.85327788 667.16803011 459.08878223 668.44067383 462.32324219 C677.26034692 485.22594166 683.99518721 508.50858363 690.06567383 532.26074219 C690.34193604 533.33291992 690.34193604 533.33291992 690.6237793 534.42675781 C691.80903519 539.0290197 692.94672455 543.64201717 694.06567383 548.26074219 C694.28723145 549.1653418 694.50878906 550.06994141 694.73706055 551.00195312 C700.71596493 575.54861069 704.85535659 600.12153188 707.75317383 625.19824219 C707.90727219 626.51112213 707.90727219 626.51112213 708.06448364 627.8505249 C711.15726775 654.46976765 712.42672727 681.03222617 712.31567383 707.82324219 C712.31230527 709.18218938 712.30917516 710.54113718 712.30627441 711.90008545 C712.17340476 766.1093995 707.2151408 819.35893919 694.77709961 872.20605469 C694.067966 875.25090016 693.38821889 878.30085971 692.71801758 881.35449219 C690.8074371 890.03186225 688.82773398 898.59223312 686.07739258 907.04980469 C685.12284268 910.07930283 684.28117716 913.12582782 683.46411133 916.19482422 C681.12516342 924.94054029 678.41407075 933.54291151 675.56567383 942.13574219 C675.19804932 943.25223145 674.8304248 944.3687207 674.45166016 945.51904297 C672.32680635 951.85932499 669.9745823 958.03666133 667.35571289 964.18847656 C665.50550034 968.59481169 663.79558213 973.05268002 662.07080078 977.50927734 C658.23685278 987.40985631 654.36583368 997.22634866 649.72973633 1006.78417969 C648.15677612 1010.07041112 646.69163281 1013.38423126 645.24462891 1016.72680664 C641.0673394 1026.34969344 636.33549055 1035.59574293 631.36547852 1044.83007812 C630.0328816 1047.3220644 628.72200646 1049.82439607 627.41723633 1052.33105469 C623.18784338 1060.45473768 618.92598327 1068.4920029 614.06567383 1076.26074219 C613.21489258 1077.65486328 613.21489258 1077.65486328 612.34692383 1079.07714844 C595.72701296 1106.28884677 595.72701296 1106.28884677 587.06567383 1118.26074219 C585.90430969 1119.89629653 584.74296933 1121.53186782 583.58203125 1123.16772461 C571.85396678 1139.65755962 559.82583236 1155.80833956 546.66723633 1171.19042969 C544.32309682 1173.93808264 542.06684066 1176.74874447 539.81567383 1179.57324219 C534.76142328 1185.78689071 529.25263861 1191.55333393 523.74536133 1197.36230469 C520.71788783 1200.55651308 517.75815858 1203.80075915 514.81567383 1207.07324219 C509.81292743 1212.54993298 504.61462755 1217.82019195 499.37817383 1223.07324219 C498.58185547 1223.87415283 497.78553711 1224.67506348 496.96508789 1225.50024414 C492.74995432 1229.70442362 488.45650539 1233.7450399 483.94384766 1237.62768555 C480.9691003 1240.21420382 478.12027634 1242.93130335 475.25317383 1245.63574219 C470.25676399 1250.31081586 465.1535277 1254.76545909 459.80786133 1259.04199219 C457.39299481 1260.99590128 455.0364164 1263.00313249 452.68945312 1265.03759766 C444.27033775 1272.30739517 435.36884862 1278.91058348 426.42407227 1285.51513672 C424.37239101 1287.03372067 422.33012789 1288.56358842 420.29223633 1290.10058594 C384.64212782 1316.84314361 345.45586397 1339.82292442 304.9597168 1358.38574219 C303.16630278 1359.21425416 301.38320406 1360.06498929 299.60083008 1360.91699219 C282.15480588 1369.23770564 264.26443605 1376.74834209 246.06567383 1383.26074219 C245.42645996 1383.48987305 244.78724609 1383.71900391 244.12866211 1383.95507812 C241.10615144 1385.03792543 238.08195354 1386.11516767 235.05395508 1387.18261719 C232.14529563 1388.1684137 232.14529563 1388.1684137 229.80786133 1389.37792969 C220.83065728 1392.26802672 206.54765008 1391.94919516 198.13208008 1387.64355469 C190.33952103 1382.42887434 185.4922573 1377.04050224 182.06567383 1368.26074219 C181.72029572 1367.40343002 181.3749176 1366.54611786 181.01907349 1365.66282654 C179.83859671 1361.45044664 179.80064543 1357.68511497 179.83862305 1353.33520508 C179.83832533 1352.44721946 179.83802761 1351.55923384 179.83772087 1350.64433956 C179.83910781 1347.67392863 179.85478371 1344.70376629 179.87036133 1341.73339844 C179.87420077 1339.60075011 179.87712786 1337.46809998 179.87921143 1335.33544922 C179.8855337 1330.74216374 179.89807266 1326.1489518 179.91534424 1321.55569458 C179.94243497 1314.27370765 179.95418924 1306.99174506 179.96362305 1299.7097168 C179.98771022 1282.91606151 180.03163278 1266.12246906 180.07608032 1249.32885742 C180.11655856 1233.9772173 180.1527039 1218.62559973 180.17251015 1203.2739172 C180.18239904 1196.05611382 180.20200716 1188.83842574 180.22937012 1181.62066841 C180.24445201 1177.09633735 180.25095314 1172.57202134 180.25530243 1168.04766846 C180.25899905 1165.97347071 180.26610303 1163.89927528 180.27716827 1161.82510376 C180.51176719 1116.35574029 172.4618269 1067.65271306 139.56176758 1033.67480469 C137.97081515 1032.09630103 136.36899156 1030.52862697 134.75317383 1028.97558594 C133.06567383 1027.26074219 133.06567383 1027.26074219 133.06567383 1026.26074219 C134.05559326 1026.13546143 135.0455127 1026.01018066 136.06542969 1025.88110352 C154.97363696 1023.47360922 173.71982956 1020.87123823 192.36206055 1016.83398438 C194.97810153 1016.27930998 197.59824063 1015.765353 200.22583008 1015.26855469 C255.88622939 1004.74350117 311.82544044 982.57954234 355.06567383 945.26074219 C355.83395508 944.60332031 356.60223633 943.94589844 357.39379883 943.26855469 C370.19931908 932.03192268 381.99170142 920.00474264 392.06567383 906.26074219 C392.70279297 905.40681885 392.70279297 905.40681885 393.3527832 904.53564453 C408.9197644 883.65210357 420.95532678 860.63092055 430.06567383 836.26074219 C430.52973633 835.04 430.99379883 833.81925781 431.47192383 832.56152344 C432.00430629 831.12834985 432.53538328 829.69469112 433.06567383 828.26074219 C433.44788086 827.24334961 433.83008789 826.22595703 434.22387695 825.17773438 C437.36894717 816.63322681 439.89411913 808.03648473 442.06567383 799.19824219 C442.23553802 798.51231995 442.40540222 797.82639771 442.58041382 797.11968994 C448.57531462 772.77705617 452.08900716 748.23519821 454.06567383 723.26074219 C454.16066162 722.09986084 454.25564941 720.93897949 454.35351562 719.74291992 C458.53194286 662.26599706 455.28951371 603.59264341 429.06567383 551.26074219 C428.44255358 549.95962743 427.82151934 548.65751195 427.20239258 547.35449219 C417.60356883 527.35937402 404.9932773 508.71328665 390.44067383 491.99511719 C384.0569313 484.64541361 384.0569313 484.64541361 384.12817383 481.51074219 C385.06043616 478.27889945 386.09002704 475.10269304 387.17895508 471.92089844 C400.75980989 431.17833399 401.46616232 382.8501425 390.62036133 341.41210938 C390.01632927 339.06935827 389.46047773 336.7180601 388.90942383 334.36230469 C386.56003708 324.44806388 383.74326826 314.80200544 380.39770508 305.17871094 C379.14700712 301.5728141 378.08039762 297.93971707 377.06567383 294.26074219 C373.13298516 294.23600351 369.2003267 294.21786384 365.26757812 294.20581055 C363.27252615 294.1983149 361.27749597 294.18560873 359.2824707 294.17285156 C357.40205078 294.16801758 357.40205078 294.16801758 355.48364258 294.16308594 C354.32630615 294.15784912 353.16896973 294.1526123 351.9765625 294.1472168 C348.99962972 294.12774758 348.99962972 294.12774758 346.06567383 295.26074219 C344.4840893 295.38874813 342.90020354 295.4892141 341.31567383 295.57324219 C334.74499114 296.13938456 328.63776125 297.7931908 322.31567383 299.61767578 C319.79985383 300.33671548 317.2771015 301.02774964 314.75317383 301.71777344 C312.89882205 302.23142855 311.04465407 302.74574768 309.19067383 303.26074219 C308.3232959 303.49752686 307.45591797 303.73431152 306.56225586 303.97827148 C301.52743464 305.39910285 296.83626668 307.1351873 292.08911133 309.33251953 C289.44096138 310.54731998 286.73481119 311.56220548 284.00317383 312.57324219 C270.35087103 317.7937056 257.38656101 323.96629819 244.53637695 330.92382812 C242.05585935 332.26605287 239.5687596 333.59550098 237.08129883 334.92480469 C228.74657433 339.41060865 220.56610729 344.07549708 212.56567383 349.13574219 C211.79562012 349.62171875 211.02556641 350.10769531 210.23217773 350.60839844 C206.0006714 353.30669925 201.85160889 356.09394036 197.74536133 358.97949219 C196.85913086 359.58937988 195.97290039 360.19926758 195.05981445 360.82763672 C193.35716511 362.00304882 191.66975969 363.20096607 190.0012207 364.42431641 C184.41480132 368.25191921 184.41480132 368.25191921 180.97509766 368.27441406 C178.60340829 367.76007838 176.36887847 367.02567511 174.06567383 366.26074219 C171.89175904 365.7366306 169.71280325 365.23320295 167.53051758 364.74511719 C166.3260498 364.46643799 165.12158203 364.18775879 163.88061523 363.90063477 C136.57486078 357.63382486 109.36960203 352.69689872 81.51391602 349.64257812 C78.6767118 349.32840456 75.84365017 348.99571089 73.01098633 348.64355469 C68.701774 348.11278406 64.3878446 347.6714502 60.06567383 347.26074219 C59.16413574 347.17050781 58.26259766 347.08027344 57.33374023 346.98730469 C15.94972106 342.99783402 -25.68186716 344.78725914 -66.93432617 349.26074219 C-67.6248407 349.33526611 -68.31535522 349.40979004 -69.02679443 349.48657227 C-75.51526923 350.19287353 -81.98556997 350.98991918 -88.44702148 351.91064453 C-91.02118827 352.27296836 -93.59799601 352.60669084 -96.17651367 352.93652344 C-119.03541321 355.9285371 -141.45076128 361.44732134 -163.90185547 366.58398438 C-164.9025708 366.80731445 -165.90328613 367.03064453 -166.93432617 367.26074219 C-167.8031543 367.5051001 -168.67198242 367.74945801 -169.56713867 368.0012207 C-172.63617558 368.33768793 -173.71137211 367.59481638 -176.23510742 365.86621094 C-177.03843506 365.32810791 -177.8417627 364.79000488 -178.66943359 364.2355957 C-179.51997314 363.64576904 -180.3705127 363.05594238 -181.24682617 362.44824219 C-183.06128483 361.23113348 -184.87639584 360.01499677 -186.69213867 358.79980469 C-187.58707031 358.19426758 -188.48200195 357.58873047 -189.40405273 356.96484375 C-207.71370661 344.63356393 -227.15396825 333.6917134 -247.05834961 324.15966797 C-249.01401067 323.22255917 -250.96226404 322.27097884 -252.91088867 321.31933594 C-275.9063235 310.18766607 -299.73167644 300.90247534 -324.93432617 296.26074219 C-325.81475586 296.05707031 -326.69518555 295.85339844 -327.60229492 295.64355469 C-338.01286808 293.45027376 -354.76499863 291.40239617 -364.93432617 295.26074219 C-366.1532452 297.54012078 -367.06244617 299.60109582 -367.93432617 302.01074219 C-368.16893555 302.61273437 -368.40354492 303.21472656 -368.64526367 303.83496094 C-372.82673824 314.82819245 -375.81974122 326.19790049 -378.49682617 337.63574219 C-378.64806946 338.28082733 -378.79931274 338.92591248 -378.95513916 339.59054565 C-381.7789522 351.72891359 -383.68641501 363.86145427 -384.93432617 376.26074219 C-385.12961914 377.93910156 -385.12961914 377.93910156 -385.32885742 379.65136719 C-387.13229348 397.63763617 -386.35210865 416.07268725 -384.20336914 433.98730469 C-383.95608884 436.07684563 -383.73935783 438.16693653 -383.53198242 440.26074219 C-382.05519213 453.5377901 -378.25069931 466.30941935 -373.53588867 478.78027344 C-372.81095899 481.76943154 -372.91467287 483.35794541 -373.93432617 486.26074219 C-375.76245117 488.52246094 -375.76245117 488.52246094 -378.18432617 490.94824219 C-410.39705845 524.85576413 -430.92663815 573.03245037 -439.62182617 618.51074219 C-439.82420898 619.54352295 -440.0265918 620.57630371 -440.23510742 621.64038086 C-443.73899414 640.7672225 -444.27902005 659.99214714 -444.18432617 679.38574219 C-444.1815567 680.50215088 -444.17878723 681.61855957 -444.17593384 682.76879883 C-444.1298315 698.64615985 -443.84546513 714.41882796 -442.23754883 730.22705078 C-441.92677402 733.33630018 -441.66893941 736.44717657 -441.41479492 739.56152344 C-439.09421816 765.70155772 -433.93799734 792.47148317 -425.56176758 817.36328125 C-424.58860106 820.30625796 -423.74206096 823.28599538 -422.87182617 826.26074219 C-420.94747481 832.44839231 -418.55048403 838.33610988 -415.93432617 844.26074219 C-415.61834473 844.98680664 -415.30236328 845.71287109 -414.97680664 846.4609375 C-407.54834703 863.50861103 -399.42542961 879.87848645 -388.93432617 895.26074219 C-388.54132324 895.83920898 -388.14832031 896.41767578 -387.7434082 897.01367188 C-381.666429 905.8952223 -375.07126566 914.21011893 -367.93432617 922.26074219 C-367.45205566 922.80617676 -366.96978516 923.35161133 -366.47290039 923.91357422 C-354.51225415 937.35795618 -341.39956994 948.60530364 -326.93432617 959.26074219 C-326.37664551 959.67565918 -325.81896484 960.09057617 -325.24438477 960.51806641 C-285.91712565 989.60113882 -239.00478863 1004.50345102 -191.93432617 1015.26074219 C-190.76240723 1015.53047852 -189.59048828 1015.80021484 -188.38305664 1016.078125 C-166.821121 1020.98475177 -144.90410747 1023.87545165 -122.93432617 1026.26074219 C-123.75932617 1027.23011719 -124.58432617 1028.19949219 -125.43432617 1029.19824219 C-125.98733398 1029.84921875 -126.5403418 1030.50019531 -127.11010742 1031.17089844 C-128.28592033 1032.51792179 -129.4902143 1033.84085202 -130.72729492 1035.13183594 C-139.73661272 1044.6612793 -146.68246665 1056.08359628 -152.30932617 1067.88574219 C-152.60645508 1068.50449219 -152.90358398 1069.12324219 -153.2097168 1069.76074219 C-157.52740624 1079.22681748 -160.68270288 1089.11900403 -162.60229492 1099.33105469 C-162.73013367 1099.99509308 -162.85797241 1100.65913147 -162.98968506 1101.34329224 C-163.50588472 1104.04622456 -164.01673694 1106.74755577 -164.46386719 1109.46289062 C-166.38337109 1120.90707269 -166.38337109 1120.90707269 -170.15112305 1124.19555664 C-172.7136773 1125.49990453 -175.18757839 1126.42137718 -177.93432617 1127.26074219 C-179.1331543 1127.78539062 -180.33198242 1128.31003906 -181.56713867 1128.85058594 C-212.45550619 1140.77059354 -247.37758479 1146.11926597 -279.93432617 1138.26074219 C-281.00038086 1138.03257813 -282.06643555 1137.80441406 -283.16479492 1137.56933594 C-302.33178458 1133.23010801 -320.05988024 1124.01163071 -334.93432617 1111.26074219 C-335.44302246 1110.82503906 -335.95171875 1110.38933594 -336.47583008 1109.94042969 C-352.5581287 1095.99394188 -364.94286847 1079.99361962 -375.6418457 1061.65527344 C-381.80162255 1051.24344296 -389.63788889 1042.0312616 -397.93432617 1033.26074219 C-398.75288086 1032.37773438 -399.57143555 1031.49472656 -400.41479492 1030.58496094 C-420.42895385 1009.68391166 -450.01670175 992.71576672 -479.27416992 991.07324219 C-490.82967982 990.86894588 -503.2337921 991.09326639 -512.64135742 998.62792969 C-514.32286082 1000.75139923 -514.26605121 1001.77960802 -513.99682617 1004.44824219 C-513.17300957 1009.91377814 -510.56688476 1013.23660044 -506.93432617 1017.26074219 C-506.47541992 1017.81117188 -506.01651367 1018.36160156 -505.54370117 1018.92871094 C-498.28900841 1026.96614687 -488.1356451 1032.53409482 -479.12182617 1038.38574219 C-445.42686576 1060.82773669 -423.92607541 1098.660203 -409.23535156 1135.42333984 C-402.36515114 1152.54941012 -393.32981934 1166.63911059 -380.93432617 1180.26074219 C-380.31686523 1180.96070313 -379.6994043 1181.66066406 -379.06323242 1182.38183594 C-367.55861041 1194.70638646 -352.84926574 1203.70373931 -337.93432617 1211.26074219 C-336.95077148 1211.76089844 -335.9672168 1212.26105469 -334.95385742 1212.77636719 C-319.97591826 1219.93677381 -304.16369478 1224.09839139 -287.93432617 1227.26074219 C-287.11528809 1227.42735352 -286.29625 1227.59396484 -285.45239258 1227.765625 C-247.68425075 1235.17354886 -208.28335039 1229.16627627 -170.93432617 1222.26074219 C-170.57167163 1249.74377603 -170.24417691 1277.22708154 -169.96084595 1304.71105194 C-169.93588934 1307.11045466 -169.91021943 1309.50984848 -169.88427734 1311.90924072 C-169.80324203 1319.47217737 -169.7368919 1327.03494612 -169.70214844 1334.5982666 C-169.69039175 1336.72566279 -169.67341623 1338.85303739 -169.65087891 1340.98034668 C-169.36695318 1368.86431259 -169.36695318 1368.86431259 -178.93432617 1380.26074219 C-187.13705904 1388.46347506 -197.1933948 1390.73074325 -208.43334961 1390.85229492 C-218.46268862 1390.63522108 -226.88990416 1387.2327517 -236.05297852 1383.43261719 C-239.98529753 1381.83330086 -243.96880576 1380.38965243 -247.95678711 1378.93603516 C-265.10169398 1372.66021717 -281.81408434 1365.58788761 -298.0456543 1357.22705078 C-300.54109269 1355.95029986 -303.05355947 1354.70932264 -305.56640625 1353.46728516 C-338.1336889 1337.32986092 -369.13772206 1319.07736365 -398.93432617 1298.26074219 C-399.58804199 1297.80425293 -400.24175781 1297.34776367 -400.9152832 1296.87744141 C-414.43576589 1287.40284734 -427.33124526 1277.21404368 -440.10083008 1266.7578125 C-441.73126656 1265.42654266 -443.36937436 1264.1046805 -445.00854492 1262.78417969 C-450.64928172 1258.22974741 -456.06335399 1253.48910479 -461.39916992 1248.58105469 C-463.46758376 1246.68793016 -465.55838494 1244.83822515 -467.68432617 1243.01074219 C-478.14921745 1233.87238642 -488.09882327 1224.19288088 -497.93432617 1214.38574219 C-499.26016724 1213.06678955 -499.26016724 1213.06678955 -500.61279297 1211.72119141 C-505.01395854 1207.3095797 -509.26991249 1202.83782012 -513.32983398 1198.11035156 C-515.90412582 1195.1427869 -518.61430222 1192.30570142 -521.30932617 1189.44824219 C-525.90113781 1184.53614761 -530.30025475 1179.53580943 -534.50463867 1174.28417969 C-536.37473641 1171.95708057 -538.26413526 1169.65428966 -540.17651367 1167.36230469 C-548.0777691 1157.88320877 -555.67819507 1148.24283854 -562.93432617 1138.26074219 C-563.39452148 1137.6282959 -563.8547168 1136.99584961 -564.32885742 1136.34423828 C-592.27545955 1097.740534 -618.93666127 1056.16493206 -637.30712891 1012.06518555 C-638.82938374 1008.45424472 -640.5057552 1004.92942455 -642.20385742 1001.39746094 C-646.15446559 993.04261869 -649.43976432 984.47128402 -652.68432617 975.82324219 C-653.25281317 974.32109087 -653.82182209 972.81913697 -654.39135742 971.31738281 C-655.6718755 967.93696284 -656.94751348 964.55476089 -658.21760559 961.17041016 C-658.71397597 959.84785485 -659.21117322 958.52560971 -659.70903015 957.20361328 C-666.02854371 940.40414366 -671.68809247 923.49737442 -676.1809082 906.11816406 C-676.98248799 903.0780831 -677.82710204 900.05231711 -678.68041992 897.02636719 C-682.40824998 883.71455196 -685.43542192 870.41986324 -687.89135742 856.81542969 C-688.47902241 853.5763633 -689.11738353 850.38687087 -689.94995117 847.20214844 C-695.71800775 825.05099179 -697.2358726 801.46030027 -699.55932617 778.76074219 C-699.68251221 777.5694873 -699.80569824 776.37823242 -699.93261719 775.15087891 C-701.87270959 755.67487184 -702.13657759 736.3167908 -702.12182617 716.76074219 C-702.12170658 716.05978424 -702.12158699 715.35882629 -702.12146378 714.6366272 C-702.11688711 693.44418746 -701.83573108 672.38460844 -699.93432617 651.26074219 C-699.81995078 649.91461587 -699.70637025 648.56842182 -699.59350586 647.22216797 C-698.44068431 633.56213885 -697.14948604 619.95633756 -694.67260742 606.46386719 C-693.97680241 602.6482205 -693.46207886 598.82170349 -692.96264648 594.97607422 C-691.10994674 580.89502529 -688.09610012 567.09877896 -684.93432617 553.26074219 C-684.65540527 552.03661621 -684.37648438 550.81249023 -684.08911133 549.55126953 C-680.56370978 534.21002813 -676.5843383 519.10899072 -671.8269043 504.10498047 C-670.87716681 501.07860144 -669.95698821 498.04440612 -669.04370117 495.00683594 C-668.73239258 493.97220215 -668.42108398 492.93756836 -668.1003418 491.87158203 C-667.50933335 489.90480925 -666.91940918 487.93771016 -666.33081055 485.97021484 C-664.72054408 480.64653554 -662.93488762 475.44836828 -660.93432617 470.26074219 C-660.23710857 468.39166007 -659.54196191 466.52180471 -658.84838867 464.65136719 C-658.08540898 462.60447685 -657.32238732 460.55760216 -656.55932617 458.51074219 C-656.18549805 457.50269531 -655.81166992 456.49464844 -655.42651367 455.45605469 C-641.81937629 419.01502237 -624.70437807 383.2116959 -604.55004883 349.93652344 C-602.95492344 347.2948531 -601.38467972 344.63990157 -599.82104492 341.97949219 C-580.84481384 309.79841958 -558.67264694 279.25531292 -534.34350586 250.90820312 C-532.91030078 249.23265429 -531.48782879 247.54847245 -530.06713867 245.86230469 C-520.9960547 235.13217118 -511.55020921 224.73919371 -501.5234375 214.89160156 C-499.90052876 213.22605688 -498.41359005 211.49173384 -496.93432617 209.69824219 C-492.80773932 204.89792687 -488.13728818 200.69586706 -483.49072266 196.41064453 C-480.09162367 193.27581186 -476.73839725 190.12269846 -473.49682617 186.82324219 C-469.81152128 183.09079054 -465.92058273 179.66717961 -461.93432617 176.26074219 C-460.93788086 175.39835938 -459.94143555 174.53597656 -458.91479492 173.64746094 C-444.65102912 161.32002847 -430.14294907 149.40646415 -414.93432617 138.26074219 C-414.25354004 137.75752441 -413.57275391 137.25430664 -412.87133789 136.73583984 C-367.72355523 103.38219272 -318.08915505 74.21915749 -265.93432617 53.26074219 C-264.17234845 52.53871759 -262.41063664 51.81604381 -260.64916992 51.09277344 C-252.79112039 47.8874974 -244.94692769 44.75359691 -236.83276367 42.24511719 C-234.24536017 41.36637638 -231.74253683 40.38981548 -229.21166992 39.36230469 C-206.85526508 30.33678763 -183.32978853 24.43693243 -159.90356445 18.96337891 C-157.19870934 18.32330548 -154.50129396 17.66014048 -151.80541992 16.98339844 C-128.41069548 11.14802688 -104.75549433 6.92905335 -80.76489258 4.54443359 C-78.15642943 4.28300232 -75.55125983 4.00176604 -72.94604492 3.70996094 C-69.12422784 3.28292656 -65.29970821 2.89484815 -61.47276306 2.51701355 C-59.84058967 2.35223526 -58.20904271 2.18105914 -56.5783844 2.00190735 C-37.73674826 -0.05705079 -18.92702651 -0.04863803 0 0 Z " fill="#000000" transform="translate(954.934326171875,264.7392578125)"/>
</svg>
